<svg id="Vrstva_1" data-name="Vrstva 1" xmlns="http://www.w3.org/2000/svg" viewBox="0 0 337.61 68.69"><defs><style>.cls-1{opacity:0.92;}.cls-2{fill:#00ffc8;}</style></defs><g class="cls-1"><path class="cls-2" d="M48.68,37.37V67h-17V39.34c0-5.68-2-8.57-6.43-8.57-5.13,0-8.33,3.64-8.33,10V67H0V0H17V21a21,21,0,0,1,13.15-4.69C41.41,16.33,48.68,24.61,48.68,37.37Z"/><path class="cls-2" d="M108,17.73V67H94.84l-1.45-3.48a23.3,23.3,0,0,1-14.86,5.15c-15.06,0-25.82-11-25.82-26.29s10.76-26.1,25.82-26.1a23.35,23.35,0,0,1,15,5.29l1.73-3.81ZM91.82,42.39a11,11,0,1,0-22,0,11,11,0,1,0,22,0Z"/><path class="cls-2" d="M148.09,17.55V33.07H141.5c-6,0-8.52,2.63-8.52,8.91V67H116V17.78h11.36L130,23.25c3.47-4,7.7-5.7,13.56-5.7Z"/><path class="cls-2" d="M205,0V67H192.44l-1.6-3.65A22.8,22.8,0,0,1,176,68.69c-15.11,0-25.87-11-25.87-26.29S160.87,16.17,176,16.17a22.93,22.93,0,0,1,12.24,3.42V0ZM189.28,42.4a10.85,10.85,0,0,0-11-11.26c-6.35,0-11,4.83-11,11.26s4.67,11.27,11,11.27S189.28,48.83,189.28,42.4Z"/><path class="cls-2" d="M264.27,17.73V67H251.15l-1.45-3.48a23.3,23.3,0,0,1-14.86,5.15c-15.06,0-25.82-11-25.82-26.29s10.76-26.1,25.82-26.1a23.35,23.35,0,0,1,15,5.29l1.73-3.81ZM248.13,42.39a11,11,0,1,0-22,0,11,11,0,1,0,22,0Z"/><path class="cls-2" d="M331.1,52.17c-3.58,0-5.71-2.13-5.71-5.65V33.07h11.95V17.78H325V3.63l-3.48,0-13.05,13.9V49.42c0,10.95,6.62,17.6,17.51,17.6h11.67V52.17Z"/><path class="cls-2" d="M304.4,17.55V33.07h-6.59c-6,0-8.52,2.63-8.52,8.91V67h-17V17.78H283.7l2.64,5.47c3.47-4,7.7-5.7,13.57-5.7Z"/></g></svg>