<svg id="Vrstva_1" data-name="Vrstva 1" xmlns="http://www.w3.org/2000/svg" viewBox="0 0 11.34 11.34"><defs><style>.cls-1{fill:#fff;}</style></defs><path class="cls-1" d="M11.17,5.64c0,1.55-.72,2.6-1.77,2.6A1.47,1.47,0,0,1,7.94,6.89,2.58,2.58,0,0,1,5.51,8.43a2.66,2.66,0,0,1-2.7-2.75,2.66,2.66,0,0,1,2.7-2.75,2.59,2.59,0,0,1,2.4,1.48L8,3.16h.26V6.54A1.25,1.25,0,0,0,9.41,7.92c.86,0,1.44-.92,1.44-2.28,0-2.93-2.09-4.91-5.2-4.91A4.79,4.79,0,0,0,.49,5.68a4.7,4.7,0,0,0,5,4.92,4.16,4.16,0,0,0,2.35-.68v.36a4.54,4.54,0,0,1-2.38.65A5,5,0,0,1,.16,5.68C.16,2.52,2.37.41,5.64.41S11.17,2.52,11.17,5.64Zm-3.28,0A2.3,2.3,0,0,0,5.53,3.27,2.33,2.33,0,0,0,3.17,5.68,2.33,2.33,0,0,0,5.53,8.09,2.32,2.32,0,0,0,7.89,5.68Z"/></svg>